Immortals 3D (2011) 1080p MKV x264 AC3+DTS Half-SBS
.
[IMG]http://img210.imageshack.us/img210/5748/imor2012.jpg[/IMG]
.
Verenigde Staten
Actie / Fantasy
110 minuten

geregisseerd door Tarsem Singh
met Henry Cavill, Mickey Rourke en Freida Pinto

De bloeddorstige koning Hyperion (Mickey Rourke) laat met zijn leger een spoor van vernietiging achter in het oude Griekenland. Hyperion is op zoek naar de boog van Epirus. Daarmee wil hij de Goden van Olympus omverwerpen en zichzelf tot heerser van de wereld kronen. Een door Zeus (Luke Evans) uitverkoren sterfelijke, Theseus (Henry Cavill), moet het gevecht tegen Hyperion leiden. Met de hulp van het orakel Phaedra (Freida Pinto) verzamelt de jonge krijger genoeg mannen om zich heen om het op te nemen tegen de verraderlijke koning en zijn leger.

Vanaf 13 maart te huur
Vanaf 22 maart te koop op DVD en Blu-Ray
. 
http://www.moviemeter.nl/film/66621
.
PLOT
.
Theseus is a mortal man chosen by Zeus to lead the fight against the ruthless King Hyperion, who is on a rampage across Greece to obtain a weapon that can destroy humanity. 
. 
http://www.imdb.com/title/tt1253864/
.
INFO
.
Subs: Dutch.
NL Vertaling: QoQ-Team
.
General
Format                           : Matroska
Format version                   : Version 2
File size                        : 9.13 GiB
Duration                         : 1h 50mn
Overall bit rate                 : 11.8 Mbps
Movie name                       : Immortals (2011) 3d Half-SBS
Encoded date                     : UTC 2012-02-16 23:25:20
Writing application              : mkvmerge v5.0.1 ('Es ist Sommer') built on Oct  9 2011 11:55:43
Writing library                  : libebml v1.2.2 + libmatroska v1.3.0

Video
ID                               : 1
Format                           : AVC
Format/Info                      : Advanced Video Codec
Format profile                   : High@L4.1
Format settings, CABAC           : Yes
Format settings, ReFrames        : 2 frames
Codec ID                         : V_MPEG4/ISO/AVC
Duration                         : 1h 50mn
Bit rate                         : 9 449 Kbps
Width                            : 1 920 pixels
Height                           : 1 080 pixels
Display aspect ratio             : 16:9
Frame rate                       : 23.976 fps
Color space                      : YUV
Chroma subsampling               : 4:2:0
Bit depth                        : 8 bits
Scan type                        : Progressive
Bits/(Pixel*Frame)               : 0.190
Stream size                      : 7.29 GiB (80%)
Writing library                  : x264 core
Default                          : Yes
Forced                           : No
Color primaries                  : BT.709-5, BT.1361, IEC 61966-2-4, SMPTE RP177
Transfer characteristics         : BT.709-5, BT.1361
Matrix coefficients              : BT.709-5, BT.1361, IEC 61966-2-4 709, SMPTE RP177

Audio #1
ID                               : 2
Format                           : DTS
Format/Info                      : Digital Theater Systems
Codec ID                         : A_DTS
Duration                         : 1h 50mn
Bit rate mode                    : Constant
Bit rate                         : 1 510 Kbps
Channel(s)                       : 6 channels
Channel positions                : Front: L C R, Side: L R, LFE
Sampling rate                    : 48.0 KHz
Bit depth                        : 24 bits
Compression mode                 : Lossy
Stream size                      : 1.16 GiB (13%)
Language                         : English
Default                          : Yes
Forced                           : No

Audio #2
ID                               : 3
Format                           : AC-3
Format/Info                      : Audio Coding 3
Mode extension                   : CM (complete main)
Codec ID                         : A_AC3
Duration                         : 1h 50mn
Bit rate mode                    : Constant
Bit rate                         : 640 Kbps
Channel(s)                       : 6 channels
Channel positions                : Front: L C R, Side: L R, LFE
Sampling rate                    : 48.0 KHz
Bit depth                        : 16 bits
Compression mode                 : Lossy
Stream size                      : 505 MiB (5%)
Language                         : English
Default                          : No
Forced                           : No

Menu
00:00:00.000                     : en:(01)00:00:00:000
00:03:02.515                     : en:(02)00:03:02:515
00:06:53.579                     : en:(03)00:06:53:579
00:11:02.328                     : en:(04)00:11:02:328
00:15:26.342                     : en:(05)00:15:26:342
00:19:13.443                     : en:(06)00:19:13:443
00:23:16.186                     : en:(07)00:23:16:186
00:26:21.121                     : en:(08)00:26:21:121
00:30:00.423                     : en:(09)00:30:00:423
00:33:42.729                     : en:(10)00:33:42:729
00:37:49.809                     : en:(11)00:37:49:809
00:42:09.235                     : en:(12)00:42:09:235
00:45:57.087                     : en:(13)00:45:57:087
00:53:58.735                     : en:(14)00:53:58:735
00:57:41.332                     : en:(15)00:57:41:332
01:01:39.654                     : en:(16)01:01:39:654
01:04:53.681                     : en:(17)01:04:53:681
01:09:38.215                     : en:(18)01:09:38:215
01:16:19.324                     : en:(19)01:16:19:324
01:23:25.709                     : en:(20)01:23:25:709
01:27:41.631                     : en:(21)01:27:41:631
01:31:35.698                     : en:(22)01:31:35:698
01:38:12.928                     : en:(23)01:38:12:928
01:41:55.943                     : en:(24)01:41:55:943
01:50:26.536                     : en:(25)01:50:26:536


.
Enjoy
